# AST/ASF file generated using VICON BodyLanguage
# -----------------------------------------------
:version 1.10
:name VICON
:units
  mass 1.0
  length 0.45
  angle deg
:documentation
   .ast/.asf automatically generated from VICON data using
   VICON BodyBuilder and BodyLanguage model FoxedUp or BRILLIANT.MOD
:root
   order TX TY TZ RX RY RZ
   axis XYZ
   position 0 0 0  
   orientation 0 0 0 
:bonedata
  begin
     id 1 
     name lhipjoint
     direction 0.528046 -0.759594 0.379717 
     length 2.39752 
     axis 0 0 0  XYZ
  end
  begin
     id 2 
     name lfemur
     direction 0.34202 -0.939693 0  
     length 7.31175  
     axis 0 0 20  XYZ
    dof rx ry rz
    limits (-160.0 20.0)
           (-70.0 70.0)
           (-60.0 70.0)
  end
  begin
     id 3 
     name ltibia
     direction 0.34202 -0.939693 0   
     length 7.52482   
     axis 0 0 20   XYZ
    dof rx
    limits (-10.0 170.0)
  end
  begin
     id 4 
     name lfoot
     direction 0.0675379 -0.185559 0.980309   
     length 2.00961   
     axis -90 7.62852e-016 20   XYZ
    dof rx rz
    limits (-45.0 90.0)
           (-70.0 20.0)
  end
  begin
     id 5 
     name ltoes
     direction 1.5352e-011 -4.22286e-011 1   
     length 1.01383   
     axis -90 7.62852e-016 20   XYZ
    dof rx
    limits (-90.0 20.0)
  end
  begin
     id 6 
     name rhipjoint
     direction -0.510274 -0.769251 0.384544   
     length 2.36742  
     axis 0 0 0  XYZ 
  end
  begin
     id 7 
     name rfemur
     direction -0.34202 -0.939693 0   
     length 7.45325   
     axis 0 0 -20   XYZ
    dof rx ry rz
    limits (-160.0 20.0)
           (-70.0 70.0)
           (-70.0 60.0)
  end
  begin
     id 8 
     name rtibia
     direction -0.34202 -0.939693 0   
     length 7.49587   
     axis 0 0 -20   XYZ
    dof rx
    limits (-10.0 170.0)
 end
 begin
     id 9 
     name rfoot
     direction -0.106475 -0.292536 0.950308   
     length 2.20898  
     axis -90 -7.62852e-016 -20   XYZ
    dof rx rz
    limits (-45.0 90.0)
           (-20.0 70.0)
  end
  begin
     id 10 
     name rtoes
     direction -1.53597e-011 -4.22023e-011 1   
     length 1.10065   
     axis -90 -7.62852e-016 -20   XYZ
    dof rx
    limits (-90.0 20.0)
  end
  begin
     id 11 
     name lowerback
     direction 0.0260024 0.998026 -0.0571652   
     length 2.11214   
     axis 0 0 0   XYZ
    dof rx ry rz
    limits (-20.0 45.0)
           (-30.0 30.0)
           (-30.0 30.0)
  end
  begin
     id 12 
     name upperback
     direction 0.0216202 0.999542 -0.0211766   
     length 2.11689   
     axis 0 0 0   XYZ
    dof rx ry rz
    limits (-20.0 45.0)
           (-30.0 30.0)
           (-30.0 30.0)
  end
  begin
     id 13 
     name thorax
     direction 0.00883312 0.999944 0.00589057   
     length 2.11821   
     axis 0 0 0   XYZ
    dof rx ry rz
    limits (-20.0 45.0)
           (-30.0 30.0)
           (-30.0 30.0)
  end
  begin
     id 14 
     name lowerneck
     direction -0.059386 0.994433 0.0870401   
     length 1.81176   
     axis 0 0 0   XYZ
    dof rx ry rz
    limits (-20.0 45.0)
           (-30.0 30.0)
           (-30.0 30.0)
  end
  begin
     id 15 
     name upperneck
     direction 0.0506457 0.97328 -0.223967   
     length 1.82382   
     axis 0 0 0   XYZ
    dof rx ry rz
    limits (-20.0 45.0)
           (-30.0 30.0)
           (-30.0 30.0)
  end
  begin
     id 16
     name head
     direction 0.0205902 0.996147 -0.0852487  
     length 1.84805  
     axis 0 0 0   XYZ
    dof rx ry rz
    limits (-20.0 45.0)
           (-30.0 30.0)
           (-30.0 30.0)
  end
  begin
     id 17 
     name lclavicle
     direction 0.949493 0.303881 -0.0782325  
     length 3.60584  
     axis 0 0 0   XYZ
    dof ry rz
    limits (-20.0 10.0)
           (0.0 20.0)
  end
  begin
     id 18 
     name lhumerus
     direction 1 -4.48965e-011 1.48782e-027   
     length 4.95681   
     axis 180 -30 -90   XYZ
    dof rx ry rz
    limits (-60.0 90.0)
           (-90.0 90.0)
           (-90.0 90.0)
  end
  begin
     id 19
     name lradius
     direction 1 -4.48952e-011 2.06528e-027   
     length 3.40915   
     axis 180 -30 -90   XYZ
    dof rx
    limits (-10.0 170.0)
  end
  begin
     id 20
     name lwrist
     direction 1 -4.48964e-011 1.28021e-027   
     length 1.70457   
     axis -1.61767e-015 90 90   XYZ
    dof ry
    limits (-180.0 0.0)
 end
  begin
     id 21 
     name lhand
     direction 1 -4.49094e-011 2.54887e-027   
     length 0.616403   
     axis -1.63363e-015 90 90   XYZ
    dof rx rz
    limits (-90.0 90.0)
           (-45.0 45.0)
  end
  begin
     id 22 
     name lfingers
     direction 1 -4.49002e-011 5.11407e-027   
     length 0.49696   
     axis -3.26723e-015 90 90   XYZ
    dof rx
    limits (0.0 90.0)
  end
  begin
     id 23
     name lthumb
     direction 0.707107 -6.34998e-011 0.707107   
     length 0.713539   
     axis -90 45 -2.25915e-014   XYZ
    dof rx rz
    limits (-45.0 45.0)
           (-45.0 45.0)
  end
  begin
     id 24 
     name rclavicle
     direction -0.937751 0.334612 -0.0930482   
     length 3.46287  
     axis 0 0 0   XYZ 
    dof ry rz
    limits (-10.0 20.0)
           (-20.0 0.0)
  end
  begin
     id 25 
     name rhumerus
     direction -1 -4.48962e-011 3.59972e-027  
     length 5.352   
     axis 180 30 90   XYZ
    dof rx ry rz
    limits (-90.0 60.0)
           (-90.0 90.0)
           (-90.0 90.0)
  end
  begin
     id 26 
     name rradius
     direction -1 -4.48987e-011 -3.76925e-027   
     length 3.43721   
     axis 180 30 90   XYZ
    dof rx
    limits (-10.0 170.0)
  end
  begin
     id 27 
     name rwrist
     direction -1 -4.48943e-011 1.28112e-027   
     length 1.7186   
     axis -1.61767e-015 -90 -90   XYZ
    dof ry
    limits (-180.0 0.0)
  end
  begin
     id 28
     name rhand
     direction -1 -4.49027e-011 2.55483e-027   
     length 0.72009   
     axis -1.63363e-015 -90 -90   XYZ
    dof rx rz
    limits (-90.0 90.0)
           (-45.0 45.0)
  end
  begin
     id 29
     name rfingers
     direction -1 -4.48827e-011 5.14506e-027   
     length 0.580555   
     axis -3.26723e-015 -90 -90   XYZ
    dof rx
    limits (0.0 90.0)
  end
  begin
     id 30
     name rthumb
     direction -0.707107 -6.34936e-011 0.707107   
     length 0.833564   
     axis -90 -45 2.25915e-014   XYZ
    dof rx rz
    limits (-45.0 45.0)
           (-45.0 45.0)
  end
:hierarchy
  begin
    root lhipjoint rhipjoint lowerback
    lhipjoint lfemur
    lfemur ltibia
    ltibia lfoot
    lfoot ltoes
    rhipjoint rfemur
    rfemur rtibia
    rtibia rfoot
    rfoot rtoes
    lowerback upperback
    upperback thorax
    thorax lowerneck lclavicle rclavicle
    lowerneck upperneck
    upperneck head
    lclavicle lhumerus
    lhumerus lradius
    lradius lwrist
    lwrist lhand lthumb
    lhand lfingers
    rclavicle rhumerus
    rhumerus rradius
    rradius rwrist
    rwrist rhand rthumb
    rhand rfingers
  end

#!OML:ASF H:\Terrain\Patient Classification 1\Terrain2\Thursday\justin.ASF
:FULLY-SPECIFIED
:DEGREES
978
root 31.3567 17.9699 2.29665 -180.818 -16.2628 -173.415
lowerback 5.34662 -0.104628 4.29056
upperback 1.89269 -0.195446 4.77187
thorax -1.03406 -0.246797 2.52709
lowerneck -12.8087 2.32281 -8.41863
upperneck 39.356 0.774794 2.50013
head 16.0941 -1.99377 2.32631
rclavicle -4.60187e-014 -2.70347e-014
rhumerus -24.155 -7.61267 -76.4762
rradius 35.5148
rwrist -13.9673
rhand -23.5107 14.103
rfingers 7.12502
rthumb 2.94991 -15.8564
lclavicle -4.60187e-014 -2.70347e-014
lhumerus -35.4379 -0.710674 89.5164
lradius 40.5716
lwrist 5.10783
lhand -17.0759 21.5731
lfingers 7.12502
lthumb 9.16212 51.3541
rfemur -11.6069 -9.15531 28.8964
rtibia 29.1076
rfoot -14.8493 -2.13825
rtoes 10.2355
lfemur -14.5518 8.87066 -14.1723
ltibia 31.8912
lfoot -13.5667 7.26377
ltoes 10.5289
979
root 31.3505 17.9783 2.26311 -180.806 -16.7207 -173.544
lowerback 5.30585 -0.150633 4.02457
upperback 1.71401 -0.246827 4.78179
thorax -1.19539 -0.268525 2.69044
lowerneck -12.4972 2.35644 -8.70306
upperneck 39.346 0.77054 2.70063
head 16.0068 -2.02085 2.45901
rclavicle 4.63168e-014 5.32743e-014
rhumerus -24.7211 -7.89678 -76.3607
rradius 35.6314
rwrist -14.2739
rhand -23.7693 14.2867
rfingers 7.12502
rthumb 2.7002 -15.676
lclavicle 4.63168e-014 5.32743e-014
lhumerus -35.3925 -0.606557 89.3779
lradius 40.4746
lwrist 4.7709
lhand -15.9825 21.0138
lfingers 7.12502
lthumb 10.217 50.7457
rfemur -11.4245 -9.06243 28.7391
rtibia 29.0626
rfoot -15.1331 -2.68343
rtoes 10.1144
lfemur -14.5027 8.71607 -14.3113
ltibia 31.857
lfoot -13.5742 7.10013
ltoes 9.85251
980
root 31.343 17.9778 2.23337 -180.861 -17.2194 -173.515
lowerback 5.26892 -0.135866 3.99731
upperback 1.58098 -0.216413 4.81659
thorax -1.31266 -0.252331 2.74074
lowerneck -12.7486 2.23224 -9.72033
upperneck 39.8178 0.436753 3.68556
head 16.3258 -2.22409 3.02603
rclavicle 1.36167e-014 7.15625e-015
rhumerus -25.2499 -8.39673 -76.1706
rradius 35.7566
rwrist -14.608
rhand -24.185 14.216
rfingers 7.12502
rthumb 2.29868 -15.7514
lclavicle 1.36167e-014 7.15625e-015
lhumerus -35.104 -0.82875 89.3399
lradius 40.326
lwrist 4.29731
lhand -14.5927 20.9823
lfingers 7.12502
lthumb 11.5576 50.6436
rfemur -11.2655 -9.15335 28.7401
rtibia 29.0716
rfoot -15.3994 -3.14108
rtoes 9.58076
lfemur -14.4443 8.49482 -14.3073
ltibia 31.789
lfoot -13.5427 7.01827
ltoes 8.96631
981
root 31.3365 17.9693 2.20997 -180.856 -17.8606 -173.453
lowerback 5.3045 -0.209389 4.0423
upperback 1.41899 -0.289208 4.78805
thorax -1.49902 -0.286346 2.69242
lowerneck -12.5029 2.24617 -9.42119
upperneck 39.5944 0.514235 3.37974
head 16.146 -2.16463 2.84628
rclavicle 2.8625e-014 -1.51076e-014
rhumerus -25.8394 -8.83264 -76.1438
rradius 36.0159
rwrist -14.6854
rhand -24.5364 14.6385
rfingers 7.12502
rthumb 1.95929 -15.3323
lclavicle 2.8625e-014 -1.51076e-014
lhumerus -35.2238 -1.19689 89.3516
lradius 40.7519
lwrist 4.60002
lhand -15.1097 21.8132
lfingers 7.12502
lthumb 11.0589 51.5018
rfemur -11.2582 -9.36885 28.7845
rtibia 29.1292
rfoot -15.5802 -3.56973
rtoes 10.2812
lfemur -14.531 8.21286 -14.3269
ltibia 31.7082
lfoot -13.4459 6.93149
ltoes 7.30905
982
root 31.3254 17.9652 2.18572 -180.808 -18.4067 -173.651
lowerback 5.40275 -0.265134 3.90549
upperback 1.28509 -0.334088 4.61482
thorax -1.69283 -0.299974 2.59428
lowerneck -12.3099 2.25208 -8.85283
upperneck 39.328 0.603121 2.87383
head 15.963 -2.08038 2.53556
rclavicle 3.74709e-014 3.73715e-014
rhumerus -26.3212 -9.18353 -76.2306
rradius 36.0965
rwrist -14.8192
rhand -24.5357 15.2483
rfingers 7.12502
rthumb 1.95999 -14.7224
lclavicle 3.74709e-014 3.73715e-014
lhumerus -35.5223 -1.44452 89.2016
lradius 41.3481
lwrist 4.89214
lhand -15.62 22.3701
lfingers 7.12502
lthumb 10.5667 52.0844
rfemur -11.2161 -9.57965 28.5151
rtibia 29.2386
rfoot -15.7063 -3.7945
rtoes 11.1677
lfemur -14.54 8.05188 -14.619
ltibia 31.6184
lfoot -13.3881 6.71615
ltoes 6.56336
983
root 31.3081 17.9643 2.16137 -180.622 -18.9021 -174.004
lowerback 5.29547 -0.274634 3.67304
upperback 1.21886 -0.341755 4.43484
thorax -1.70207 -0.292806 2.537
lowerneck -12.1675 2.29833 -8.31408
upperneck 38.9843 0.809244 2.35941
head 15.7469 -1.93977 2.25085
rclavicle -4.59193e-014 -3.4191e-014
rhumerus -26.5242 -9.39687 -76.2626
rradius 36.0212
rwrist -15.207
rhand -24.27 14.875
rfingers 7.12502
rthumb 2.21662 -15.0932
lclavicle -4.59193e-014 -3.4191e-014
lhumerus -35.5391 -1.36871 88.9544
lradius 41.825
lwrist 4.49751
lhand -14.6664 23.0066
lfingers 7.12502
lthumb 11.4865 52.6719
rfemur -11.2671 -9.87805 28.0616
rtibia 29.3898
rfoot -15.7706 -3.84376
rtoes 11.5047
lfemur -14.5272 7.65236 -15.0879
ltibia 31.4941
lfoot -13.5376 6.59463
ltoes 8.35285
